<svg version="1" xmlns="http://www.w3.org/2000/svg" width="1844" height="1844" viewBox="0 0 1383.000000 1383.000000"><path d="M586.5 43.1c-226.2 93.6-374.2 155.2-377.9 157.2-2.2 1.2-5.2 3.8-6.7 5.7-1.5 1.9-10.4 21.9-19.7 44.5-9.4 22.5-32.5 78.3-51.5 124C40 593 1.7 686.7 1.2 691c-.4 4.1 1.7 9.8 21.8 58.5 32.9 79.9 77.5 187.7 114.8 277.5 65 156.5 61.9 149.1 66 153.2 3.2 3.2 21.4 11 145.7 62.6 78.1 32.4 185.7 77.1 239 99.3 91 37.9 97.4 40.4 103 40.4 5.7 0 13-2.9 128-50.7 67.1-27.9 174.4-72.5 238.5-99.1 93.2-38.8 117.3-49.2 120.6-52 4.6-4-.5 7.8 64.9-149.7C1344.6 787.7 1382 696.2 1382 692.1c0-4.1-28.6-74-151-368.6-51-122.8-50-120.7-58-124.2-9.3-3.9-391.3-162.3-452.3-187.4C704.8 5.3 691.5 0 691.2 0c-.4 0-47.5 19.4-104.7 43.1zm113.6 67.8c3 1 58.1 23.8 122.4 50.5 64.4 26.8 152.9 63.6 196.7 81.8 71.4 29.6 80.2 33.5 83.7 37 4.2 4.3-1.3-8.8 114.6 270.8 30.9 74.5 56.6 136.9 57.2 138.5.9 2.8-1.6 9.5-29.4 76.5-16.7 40.4-54.7 132.2-84.4 203.9-38.2 92.5-54.7 131.3-56.6 133.4-1.6 1.6-4.1 3.5-5.6 4.3-1.6.9-92.7 38.7-202.5 84.1-169.3 69.9-200.5 82.5-204.7 82.6-5.2.1-50.1-18.1-298-121-119.6-49.7-111-45.9-114.8-50.3-3.5-4.1-46.7-107.3-143.4-341.9-26.4-64.2-26.5-64.4-26.1-70.5.4-5.2 5.7-18.7 35.2-90.1 19.1-46.2 56.1-135.8 82.3-199 26.1-63.3 48.5-116.6 49.8-118.6 1.3-2 3.9-4.6 5.7-5.7 1.8-1.1 36.2-15.6 76.3-32.2 91.6-37.9 96.6-39.9 218.5-90.5 55.3-23 102.8-42.6 105.5-43.6 6.4-2.4 10.9-2.4 17.6 0z"/><path d="M655.5 212.1c-77.8 6.6-148.2 29-212.8 67.8-53 31.9-101.9 76.4-139.3 126.6C173.2 581.6 178.2 823.9 315.5 995c105.3 131.2 271.2 197.7 438.5 175.9 138.8-18.1 262.8-96 340.2-213.9 36.8-55.9 61.1-117.7 72.2-183.5 5.2-31 6-42.5 6-80.5s-.8-49.5-6-80.5c-16.4-97.2-61.8-185.9-131.4-256.8-79.5-81.1-179.6-129.6-293-142.3-17.2-1.9-70.1-2.7-86.5-1.3zM735 312.4c46.2 6 84.4 17.2 124.1 36.7 91.6 44.9 161.3 123.9 194.3 219.8 8.8 25.5 14.3 49.6 18.3 79.6 2.5 18.9 2.5 69.6 0 89-6 46.3-18.1 86.6-38.1 126.6-55.3 110.5-160.5 187.8-282.3 207.5-35 5.6-77.4 5.9-113.8.8-161.9-22.8-293.4-148.6-323-308.9-4.7-25.7-5.9-40.1-5.9-70.5s1-42.6 6-70c18.1-99.2 77.2-189.3 161.9-246.9 17.7-12 29.6-18.9 49.9-28.6 43.4-21 84.8-32 138.6-36.9 10.5-.9 58 .3 70 1.8z"/><path d="M788.3 470.2c-1.7 1.8-23.4 36.1-48.3 76.3-52.8 85.2-50.5 81.5-53.6 83.8-1.4 1-5.7 2.7-9.7 3.8-12 3.4-20.2 8.3-29.7 17.8-6.1 6.2-9.4 10.5-11.8 15.4-11.7 24.2-6.7 52.4 12.7 71.7 19 18.9 46.1 23.3 70.9 11.4 6-2.8 9.5-5.5 15.7-11.8 12.4-12.5 18.5-26.8 18.5-43.3 0-9.4-1.5-16-5.8-25.8-4.1-9.1-5.2-18.4-3.3-26.3.7-2.6 5.4-18 10.6-34.2 18.1-56.9 27.6-88.7 33.6-112.9 3.3-13.4 5.9-25.3 5.7-26.4-.5-3.2-2.1-3-5.5.5z"/></svg>